<svg xmlns="http://www.w3.org/2000/svg" xmlns:xlink="http://www.w3.org/1999/xlink" width="48" zoomAndPan="magnify" viewBox="0 0 36 36.000001" height="48" preserveAspectRatio="xMidYMid meet" version="1.0"><defs><clipPath id="3b7628fd85"><path d="M 1 7.371094 L 34.929688 7.371094 L 34.929688 29 L 1 29 Z M 1 7.371094 " clip-rule="nonzero"/></clipPath><clipPath id="1204c6a04f"><path d="M 12.660156 14.996094 L 23.609375 14.996094 L 23.609375 27.367188 L 12.660156 27.367188 Z M 12.660156 14.996094 " clip-rule="nonzero"/></clipPath></defs><g clip-path="url(#3b7628fd85)"><path fill="#1ea2ef" d="M 34.902344 25.132812 C 34.863281 23.8125 34.355469 22.484375 33.09375 21.800781 C 33.5625 17.523438 30.113281 13.722656 25.808594 13.78125 C 24.820312 10.089844 21.738281 7.371094 18.015625 7.375 C 14.652344 7.371094 11.789062 9.59375 10.535156 12.75 C 1.710938 14.945312 3.632812 21.445312 3.632812 21.445312 C -0.0742188 22.914062 0.46875 28.828125 4.753906 28.917969 L 31.28125 28.917969 C 33.417969 28.984375 34.847656 27.101562 34.902344 25.132812 Z M 34.902344 25.132812 " fill-opacity="1" fill-rule="nonzero"/></g><path fill="#0288d1" d="M 19.730469 16.777344 C 19.820312 16.84375 19.921875 16.867188 20.03125 16.847656 C 20.144531 16.828125 20.230469 16.773438 20.296875 16.683594 C 20.933594 15.789062 21.734375 15.085938 22.707031 14.574219 C 23.675781 14.0625 24.710938 13.796875 25.808594 13.78125 C 25.734375 13.5 25.644531 13.226562 25.546875 12.957031 C 23.234375 13.070312 21.019531 14.269531 19.632812 16.207031 C 19.570312 16.300781 19.546875 16.402344 19.5625 16.511719 C 19.582031 16.625 19.636719 16.710938 19.730469 16.777344 Z M 19.730469 16.777344 " fill-opacity="1" fill-rule="nonzero"/><path fill="#0288d1" d="M 15.121094 13.539062 C 15.21875 13.59375 15.324219 13.609375 15.433594 13.578125 C 15.542969 13.546875 15.625 13.480469 15.679688 13.382812 C 15.734375 13.28125 15.746094 13.179688 15.714844 13.070312 C 15.683594 12.960938 15.617188 12.878906 15.515625 12.824219 C 14.167969 12.074219 12.441406 11.722656 10.953125 11.855469 C 10.796875 12.144531 10.660156 12.445312 10.535156 12.75 C 11.964844 12.480469 13.761719 12.78125 15.121094 13.539062 Z M 15.121094 13.539062 " fill-opacity="1" fill-rule="nonzero"/><path fill="#0288d1" d="M 33.09375 21.796875 C 33.125 21.503906 33.136719 21.210938 33.132812 20.917969 C 32.476562 20.648438 31.792969 20.503906 31.082031 20.488281 C 30.96875 20.488281 30.871094 20.527344 30.792969 20.605469 C 30.714844 20.6875 30.671875 20.78125 30.671875 20.894531 C 30.671875 21.007812 30.714844 21.105469 30.792969 21.183594 C 30.871094 21.261719 30.96875 21.304688 31.082031 21.304688 C 31.746094 21.304688 32.589844 21.515625 33.09375 21.796875 Z M 33.09375 21.796875 " fill-opacity="1" fill-rule="nonzero"/><path fill="#0288d1" d="M 6.511719 21.535156 C 6.613281 21.585938 6.714844 21.597656 6.824219 21.5625 C 6.929688 21.53125 7.011719 21.464844 7.0625 21.367188 C 7.117188 21.265625 7.128906 21.164062 7.09375 21.054688 C 7.0625 20.949219 6.996094 20.867188 6.894531 20.8125 C 5.898438 20.28125 4.484375 20.339844 3.488281 20.625 C 3.515625 20.902344 3.5625 21.175781 3.632812 21.445312 C 4.476562 21.175781 5.722656 21.113281 6.511719 21.535156 Z M 6.511719 21.535156 " fill-opacity="1" fill-rule="nonzero"/><g clip-path="url(#1204c6a04f)"><path fill="#ffffff" d="M 23.007812 20.773438 L 21.234375 20.773438 C 20.820312 20.773438 20.40625 20.433594 20.40625 19.980469 L 20.40625 15.804688 C 20.40625 15.359375 20.054688 14.996094 19.621094 14.996094 L 16.699219 14.996094 C 16.265625 14.996094 15.914062 15.359375 15.914062 15.804688 L 15.914062 19.980469 C 15.914062 20.375 15.558594 20.773438 15.085938 20.773438 L 13.253906 20.773438 C 12.78125 20.773438 12.484375 21.335938 12.78125 21.675781 L 17.507812 27.113281 C 17.804688 27.453125 18.394531 27.453125 18.75 27.113281 L 23.480469 21.675781 C 23.773438 21.28125 23.539062 20.773438 23.007812 20.773438 " fill-opacity="1" fill-rule="nonzero"/></g></svg>