<svg xmlns="http://www.w3.org/2000/svg" xmlns:xlink="http://www.w3.org/1999/xlink" width="200" zoomAndPan="magnify" viewBox="0 0 150 36.000001" height="48" preserveAspectRatio="xMidYMid meet" version="1.0"><defs><g/></defs><g fill="#ffffff" fill-opacity="1"><g transform="translate(2.300674, 22.621623)"><g><path d="M 1.015625 -0.015625 C 0.921875 -0.0351562 0.859375 -0.078125 0.828125 -0.140625 C 0.796875 -0.203125 0.789062 -0.28125 0.8125 -0.375 L 1 -0.84375 C 1 -0.863281 1.003906 -0.882812 1.015625 -0.90625 C 1.015625 -0.914062 1.015625 -0.925781 1.015625 -0.9375 L 1.015625 -13.078125 C 1.015625 -13.085938 1.015625 -13.097656 1.015625 -13.109375 C 1.003906 -13.117188 1 -13.132812 1 -13.15625 L 0.8125 -13.640625 C 0.800781 -13.660156 0.796875 -13.691406 0.796875 -13.734375 C 0.796875 -13.804688 0.820312 -13.867188 0.875 -13.921875 C 0.925781 -13.984375 0.992188 -14.015625 1.078125 -14.015625 L 2.546875 -14.015625 C 2.640625 -14.015625 2.71875 -13.972656 2.78125 -13.890625 C 2.832031 -13.804688 2.84375 -13.722656 2.8125 -13.640625 L 2.625 -13.15625 C 2.613281 -13.132812 2.609375 -13.109375 2.609375 -13.078125 L 2.609375 -1.875 C 2.609375 -1.800781 2.640625 -1.738281 2.703125 -1.6875 C 2.742188 -1.632812 2.804688 -1.609375 2.890625 -1.609375 L 5.890625 -1.609375 C 5.929688 -1.609375 5.960938 -1.613281 5.984375 -1.625 L 6.484375 -1.796875 C 6.503906 -1.804688 6.535156 -1.8125 6.578125 -1.8125 C 6.742188 -1.8125 6.828125 -1.726562 6.828125 -1.5625 L 6.828125 -0.265625 C 6.828125 -0.191406 6.800781 -0.128906 6.75 -0.078125 C 6.695312 -0.0234375 6.632812 0 6.5625 0 L 1.015625 0 Z M 1.015625 -0.015625 "/></g></g></g><g fill="#ffffff" fill-opacity="1"><g transform="translate(9.621343, 22.621623)"><g><path d="M 1.078125 0 C 0.984375 0 0.90625 -0.0390625 0.84375 -0.125 C 0.789062 -0.195312 0.78125 -0.28125 0.8125 -0.375 L 1 -0.84375 C 1 -0.863281 1.003906 -0.882812 1.015625 -0.90625 C 1.015625 -0.914062 1.015625 -0.925781 1.015625 -0.9375 L 1.015625 -9.5 C 1.015625 -9.507812 1.015625 -9.519531 1.015625 -9.53125 C 1.003906 -9.539062 1 -9.554688 1 -9.578125 L 0.8125 -10.0625 C 0.800781 -10.082031 0.796875 -10.113281 0.796875 -10.15625 C 0.796875 -10.226562 0.820312 -10.289062 0.875 -10.34375 C 0.925781 -10.40625 0.992188 -10.4375 1.078125 -10.4375 L 2.546875 -10.4375 C 2.640625 -10.4375 2.71875 -10.394531 2.78125 -10.3125 C 2.832031 -10.226562 2.84375 -10.144531 2.8125 -10.0625 L 2.625 -9.578125 C 2.613281 -9.554688 2.609375 -9.53125 2.609375 -9.5 L 2.609375 -0.9375 C 2.609375 -0.894531 2.613281 -0.863281 2.625 -0.84375 L 2.8125 -0.375 C 2.820312 -0.351562 2.828125 -0.320312 2.828125 -0.28125 C 2.828125 -0.195312 2.800781 -0.128906 2.75 -0.078125 C 2.6875 -0.0234375 2.617188 0 2.546875 0 Z M 1.078125 0 "/></g></g></g><g fill="#ffffff" fill-opacity="1"><g transform="translate(13.24957, 22.621623)"><g><path d="M 2.515625 0 C 2.429688 0 2.363281 -0.0390625 2.3125 -0.125 C 2.25 -0.195312 2.234375 -0.28125 2.265625 -0.375 L 2.4375 -0.84375 C 2.445312 -0.863281 2.453125 -0.894531 2.453125 -0.9375 L 2.453125 -11.75 C 2.453125 -11.894531 2.382812 -11.984375 2.25 -12.015625 C 1.6875 -12.140625 1.140625 -12.304688 0.609375 -12.515625 C 0.078125 -12.722656 -0.453125 -12.929688 -0.984375 -13.140625 C -1.503906 -13.347656 -2.015625 -13.523438 -2.515625 -13.671875 C -3.035156 -13.816406 -3.539062 -13.890625 -4.03125 -13.890625 C -4.476562 -13.890625 -4.90625 -13.816406 -5.3125 -13.671875 C -5.632812 -13.554688 -5.878906 -13.425781 -6.046875 -13.28125 C -6.222656 -13.144531 -6.347656 -13.007812 -6.421875 -12.875 C -6.503906 -12.726562 -6.554688 -12.597656 -6.578125 -12.484375 C -6.597656 -12.367188 -6.613281 -12.28125 -6.625 -12.21875 C -6.644531 -12.070312 -6.726562 -12 -6.875 -12 C -6.925781 -12 -6.972656 -12.015625 -7.015625 -12.046875 L -8.109375 -12.71875 C -8.191406 -12.789062 -8.234375 -12.875 -8.234375 -12.96875 C -8.234375 -13.007812 -8.21875 -13.054688 -8.1875 -13.109375 C -8.09375 -13.253906 -7.984375 -13.421875 -7.859375 -13.609375 C -7.742188 -13.785156 -7.597656 -13.972656 -7.421875 -14.171875 C -7.253906 -14.347656 -7.039062 -14.53125 -6.78125 -14.71875 C -6.539062 -14.882812 -6.234375 -15.039062 -5.859375 -15.1875 C -5.253906 -15.394531 -4.648438 -15.5 -4.046875 -15.5 C -3.347656 -15.5 -2.664062 -15.394531 -2 -15.1875 C -1.34375 -14.96875 -0.691406 -14.734375 -0.046875 -14.484375 C 0.585938 -14.234375 1.210938 -14 1.828125 -13.78125 C 2.441406 -13.570312 3.039062 -13.46875 3.625 -13.46875 C 3.96875 -13.46875 4.3125 -13.515625 4.65625 -13.609375 C 4.988281 -13.691406 5.320312 -13.847656 5.65625 -14.078125 C 5.945312 -14.273438 6.175781 -14.46875 6.34375 -14.65625 C 6.488281 -14.820312 6.597656 -14.976562 6.671875 -15.125 C 6.742188 -15.269531 6.785156 -15.394531 6.796875 -15.5 C 6.804688 -15.601562 6.828125 -15.691406 6.859375 -15.765625 C 6.878906 -15.898438 6.960938 -15.96875 7.109375 -15.96875 C 7.160156 -15.96875 7.203125 -15.957031 7.234375 -15.9375 L 8.328125 -15.265625 C 8.410156 -15.210938 8.453125 -15.132812 8.453125 -15.03125 C 8.453125 -14.96875 8.441406 -14.921875 8.421875 -14.890625 L 8.09375 -14.328125 C 7.695312 -13.679688 7.171875 -13.144531 6.515625 -12.71875 C 5.859375 -12.28125 5.117188 -12.007812 4.296875 -11.90625 C 4.234375 -11.894531 4.179688 -11.867188 4.140625 -11.828125 C 4.085938 -11.773438 4.0625 -11.710938 4.0625 -11.640625 L 4.0625 -0.9375 C 4.0625 -0.925781 4.066406 -0.914062 4.078125 -0.90625 C 4.078125 -0.882812 4.078125 -0.863281 4.078125 -0.84375 L 4.25 -0.375 C 4.257812 -0.351562 4.265625 -0.316406 4.265625 -0.265625 C 4.265625 -0.191406 4.242188 -0.128906 4.203125 -0.078125 C 4.148438 -0.0234375 4.082031 0 4 0 Z M 2.515625 0 "/></g></g></g><g fill="#ffffff" fill-opacity="1"><g transform="translate(19.783589, 22.621623)"><g><path d="M 2.515625 0 C 2.429688 0 2.363281 -0.0390625 2.3125 -0.125 C 2.25 -0.195312 2.234375 -0.28125 2.265625 -0.375 L 2.4375 -0.84375 C 2.445312 -0.863281 2.453125 -0.894531 2.453125 -0.9375 L 2.453125 -11.75 C 2.453125 -11.894531 2.382812 -11.984375 2.25 -12.015625 C 1.6875 -12.140625 1.140625 -12.304688 0.609375 -12.515625 C 0.078125 -12.722656 -0.453125 -12.929688 -0.984375 -13.140625 C -1.503906 -13.347656 -2.015625 -13.523438 -2.515625 -13.671875 C -3.035156 -13.816406 -3.539062 -13.890625 -4.03125 -13.890625 C -4.476562 -13.890625 -4.90625 -13.816406 -5.3125 -13.671875 C -5.632812 -13.554688 -5.878906 -13.425781 -6.046875 -13.28125 C -6.222656 -13.144531 -6.347656 -13.007812 -6.421875 -12.875 C -6.503906 -12.726562 -6.554688 -12.597656 -6.578125 -12.484375 C -6.597656 -12.367188 -6.613281 -12.28125 -6.625 -12.21875 C -6.644531 -12.070312 -6.726562 -12 -6.875 -12 C -6.925781 -12 -6.972656 -12.015625 -7.015625 -12.046875 L -8.109375 -12.71875 C -8.191406 -12.789062 -8.234375 -12.875 -8.234375 -12.96875 C -8.234375 -13.007812 -8.21875 -13.054688 -8.1875 -13.109375 C -8.09375 -13.253906 -7.984375 -13.421875 -7.859375 -13.609375 C -7.742188 -13.785156 -7.597656 -13.972656 -7.421875 -14.171875 C -7.253906 -14.347656 -7.039062 -14.53125 -6.78125 -14.71875 C -6.539062 -14.882812 -6.234375 -15.039062 -5.859375 -15.1875 C -5.253906 -15.394531 -4.648438 -15.5 -4.046875 -15.5 C -3.347656 -15.5 -2.664062 -15.394531 -2 -15.1875 C -1.34375 -14.96875 -0.691406 -14.734375 -0.046875 -14.484375 C 0.585938 -14.234375 1.210938 -14 1.828125 -13.78125 C 2.441406 -13.570312 3.039062 -13.46875 3.625 -13.46875 C 3.96875 -13.46875 4.3125 -13.515625 4.65625 -13.609375 C 4.988281 -13.691406 5.320312 -13.847656 5.65625 -14.078125 C 5.945312 -14.273438 6.175781 -14.46875 6.34375 -14.65625 C 6.488281 -14.820312 6.597656 -14.976562 6.671875 -15.125 C 6.742188 -15.269531 6.785156 -15.394531 6.796875 -15.5 C 6.804688 -15.601562 6.828125 -15.691406 6.859375 -15.765625 C 6.878906 -15.898438 6.960938 -15.96875 7.109375 -15.96875 C 7.160156 -15.96875 7.203125 -15.957031 7.234375 -15.9375 L 8.328125 -15.265625 C 8.410156 -15.210938 8.453125 -15.132812 8.453125 -15.03125 C 8.453125 -14.96875 8.441406 -14.921875 8.421875 -14.890625 L 8.09375 -14.328125 C 7.695312 -13.679688 7.171875 -13.144531 6.515625 -12.71875 C 5.859375 -12.28125 5.117188 -12.007812 4.296875 -11.90625 C 4.234375 -11.894531 4.179688 -11.867188 4.140625 -11.828125 C 4.085938 -11.773438 4.0625 -11.710938 4.0625 -11.640625 L 4.0625 -0.9375 C 4.0625 -0.925781 4.066406 -0.914062 4.078125 -0.90625 C 4.078125 -0.882812 4.078125 -0.863281 4.078125 -0.84375 L 4.25 -0.375 C 4.257812 -0.351562 4.265625 -0.316406 4.265625 -0.265625 C 4.265625 -0.191406 4.242188 -0.128906 4.203125 -0.078125 C 4.148438 -0.0234375 4.082031 0 4 0 Z M 2.515625 0 "/></g></g></g><g fill="#ffffff" fill-opacity="1"><g transform="translate(26.317607, 22.621623)"><g><path d="M 1.015625 -0.015625 C 0.921875 -0.0351562 0.859375 -0.078125 0.828125 -0.140625 C 0.796875 -0.203125 0.789062 -0.28125 0.8125 -0.375 L 1 -0.84375 C 1 -0.863281 1.003906 -0.882812 1.015625 -0.90625 C 1.015625 -0.914062 1.015625 -0.925781 1.015625 -0.9375 L 1.015625 -9.5 C 1.015625 -9.507812 1.015625 -9.519531 1.015625 -9.53125 C 1.003906 -9.539062 1 -9.554688 1 -9.578125 L 0.8125 -10.0625 C 0.800781 -10.082031 0.796875 -10.113281 0.796875 -10.15625 C 0.796875 -10.226562 0.820312 -10.289062 0.875 -10.34375 C 0.925781 -10.40625 0.992188 -10.4375 1.078125 -10.4375 L 2.546875 -10.4375 C 2.640625 -10.4375 2.71875 -10.394531 2.78125 -10.3125 C 2.832031 -10.226562 2.84375 -10.144531 2.8125 -10.0625 L 2.625 -9.578125 C 2.613281 -9.554688 2.609375 -9.53125 2.609375 -9.5 L 2.609375 -1.875 C 2.609375 -1.800781 2.640625 -1.738281 2.703125 -1.6875 C 2.742188 -1.632812 2.804688 -1.609375 2.890625 -1.609375 L 5.40625 -1.609375 C 5.445312 -1.609375 5.476562 -1.613281 5.5 -1.625 L 6 -1.796875 C 6.019531 -1.804688 6.050781 -1.8125 6.09375 -1.8125 C 6.269531 -1.8125 6.359375 -1.726562 6.359375 -1.5625 L 6.359375 -0.265625 C 6.359375 -0.191406 6.332031 -0.128906 6.28125 -0.078125 C 6.21875 -0.0234375 6.148438 0 6.078125 0 L 1.015625 0 Z M 1.015625 -0.015625 "/></g></g></g><g fill="#ffffff" fill-opacity="1"><g transform="translate(33.156652, 22.621623)"><g><path d="M 3.78125 -2.21875 L 1.890625 -2.21875 C 1.628906 -2.21875 1.414062 -2.222656 1.25 -2.234375 L 1.015625 -2.234375 C 0.921875 -2.253906 0.859375 -2.296875 0.828125 -2.359375 C 0.796875 -2.421875 0.789062 -2.492188 0.8125 -2.578125 L 1 -3.0625 C 1 -3.082031 1.003906 -3.097656 1.015625 -3.109375 C 1.015625 -3.117188 1.015625 -3.128906 1.015625 -3.140625 L 1.015625 -9.5 C 1.015625 -9.507812 1.015625 -9.519531 1.015625 -9.53125 C 1.003906 -9.539062 1 -9.554688 1 -9.578125 L 0.8125 -10.0625 C 0.800781 -10.082031 0.796875 -10.113281 0.796875 -10.15625 C 0.796875 -10.289062 0.867188 -10.378906 1.015625 -10.421875 L 1.015625 -10.4375 L 6.5625 -10.4375 C 6.632812 -10.4375 6.695312 -10.40625 6.75 -10.34375 C 6.800781 -10.289062 6.828125 -10.226562 6.828125 -10.15625 L 6.828125 -8.875 C 6.828125 -8.789062 6.789062 -8.722656 6.71875 -8.671875 C 6.644531 -8.609375 6.566406 -8.597656 6.484375 -8.640625 L 5.984375 -8.8125 C 5.960938 -8.820312 5.929688 -8.828125 5.890625 -8.828125 L 2.890625 -8.828125 C 2.804688 -8.828125 2.742188 -8.800781 2.703125 -8.75 C 2.640625 -8.695312 2.609375 -8.628906 2.609375 -8.546875 L 2.609375 -8.015625 C 2.609375 -7.953125 2.640625 -7.898438 2.703125 -7.859375 C 2.742188 -7.804688 2.796875 -7.78125 2.859375 -7.78125 L 4.828125 -7.78125 C 4.867188 -7.78125 4.898438 -7.785156 4.921875 -7.796875 L 5.40625 -7.96875 C 5.425781 -7.976562 5.457031 -7.984375 5.5 -7.984375 C 5.675781 -7.984375 5.765625 -7.894531 5.765625 -7.71875 L 5.765625 -6.25 C 5.765625 -6.144531 5.726562 -6.066406 5.65625 -6.015625 C 5.570312 -5.960938 5.488281 -5.953125 5.40625 -5.984375 L 4.921875 -6.15625 C 4.898438 -6.164062 4.867188 -6.171875 4.828125 -6.171875 L 2.859375 -6.171875 C 2.796875 -6.171875 2.742188 -6.148438 2.703125 -6.109375 C 2.640625 -6.054688 2.609375 -6 2.609375 -5.9375 L 2.609375 -4.09375 C 2.609375 -4.019531 2.640625 -3.957031 2.703125 -3.90625 C 2.742188 -3.84375 2.804688 -3.8125 2.890625 -3.8125 L 5.890625 -3.8125 C 5.929688 -3.8125 5.960938 -3.816406 5.984375 -3.828125 L 6.484375 -4.015625 C 6.503906 -4.023438 6.535156 -4.03125 6.578125 -4.03125 C 6.742188 -4.03125 6.828125 -3.941406 6.828125 -3.765625 L 6.828125 -2.484375 C 6.828125 -2.410156 6.800781 -2.347656 6.75 -2.296875 C 6.695312 -2.242188 6.632812 -2.21875 6.5625 -2.21875 Z M 1.078125 0 C 1.003906 0 0.9375 -0.0234375 0.875 -0.078125 C 0.820312 -0.128906 0.796875 -0.191406 0.796875 -0.265625 L 0.796875 -0.984375 C 0.796875 -1.054688 0.820312 -1.117188 0.875 -1.171875 C 0.9375 -1.222656 1.003906 -1.25 1.078125 -1.25 L 6.5625 -1.25 C 6.632812 -1.25 6.695312 -1.222656 6.75 -1.171875 C 6.800781 -1.117188 6.828125 -1.054688 6.828125 -0.984375 L 6.828125 -0.265625 C 6.828125 -0.191406 6.800781 -0.128906 6.75 -0.078125 C 6.695312 -0.0234375 6.632812 0 6.5625 0 Z M 1.078125 0 "/></g></g></g><g fill="#ffffff" fill-opacity="1"><g transform="translate(40.798404, 22.621623)"><g/></g></g><g fill="#ffffff" fill-opacity="1"><g transform="translate(45.614635, 22.621623)"><g><path d="M 1.0625 0 C 0.96875 0 0.890625 -0.0390625 0.828125 -0.125 C 0.773438 -0.195312 0.765625 -0.28125 0.796875 -0.375 L 0.96875 -0.8125 C 0.988281 -0.882812 1 -0.9375 1 -0.96875 L 1 -9.84375 C 1 -9.875 0.988281 -9.921875 0.96875 -9.984375 L 0.796875 -10.4375 C 0.785156 -10.457031 0.78125 -10.488281 0.78125 -10.53125 C 0.78125 -10.601562 0.804688 -10.664062 0.859375 -10.71875 C 0.910156 -10.769531 0.976562 -10.796875 1.0625 -10.796875 L 2.53125 -10.796875 C 2.613281 -10.796875 2.691406 -10.757812 2.765625 -10.6875 C 2.816406 -10.601562 2.828125 -10.519531 2.796875 -10.4375 L 2.609375 -9.984375 C 2.597656 -9.953125 2.59375 -9.90625 2.59375 -9.84375 L 2.59375 -7.078125 C 2.59375 -7.023438 2.609375 -6.984375 2.640625 -6.953125 C 2.679688 -6.921875 2.726562 -6.914062 2.78125 -6.9375 C 3.132812 -7.03125 3.457031 -7.171875 3.75 -7.359375 C 4.050781 -7.546875 4.3125 -7.765625 4.53125 -8.015625 C 4.726562 -8.273438 4.882812 -8.5625 5 -8.875 C 5.125 -9.175781 5.1875 -9.492188 5.1875 -9.828125 C 5.1875 -10.046875 5.15625 -10.28125 5.09375 -10.53125 C 4.90625 -11.195312 4.578125 -11.679688 4.109375 -11.984375 C 3.628906 -12.273438 3.097656 -12.421875 2.515625 -12.421875 C 2.085938 -12.421875 1.660156 -12.347656 1.234375 -12.203125 C 0.804688 -12.046875 0.421875 -11.832031 0.078125 -11.5625 C -0.265625 -11.300781 -0.539062 -10.984375 -0.75 -10.609375 C -0.96875 -10.234375 -1.078125 -9.816406 -1.078125 -9.359375 C -1.078125 -9.117188 -1.046875 -8.878906 -0.984375 -8.640625 C -0.929688 -8.390625 -0.832031 -8.132812 -0.6875 -7.875 C -0.675781 -7.863281 -0.664062 -7.851562 -0.65625 -7.84375 C -0.65625 -7.832031 -0.644531 -7.820312 -0.625 -7.8125 L -0.234375 -7.484375 C -0.171875 -7.421875 -0.140625 -7.347656 -0.140625 -7.265625 C -0.140625 -7.148438 -0.1875 -7.070312 -0.28125 -7.03125 L -1.5625 -6.3125 C -1.59375 -6.289062 -1.640625 -6.28125 -1.703125 -6.28125 C -1.765625 -6.28125 -1.820312 -6.300781 -1.875 -6.34375 C -1.925781 -6.375 -1.957031 -6.425781 -1.96875 -6.5 L -2.046875 -7 C -2.046875 -7.019531 -2.0625 -7.050781 -2.09375 -7.09375 C -2.332031 -7.519531 -2.503906 -7.929688 -2.609375 -8.328125 C -2.722656 -8.722656 -2.78125 -9.109375 -2.78125 -9.484375 C -2.78125 -10.160156 -2.617188 -10.773438 -2.296875 -11.328125 C -1.984375 -11.878906 -1.570312 -12.351562 -1.0625 -12.75 C -0.539062 -13.144531 0.0351562 -13.457031 0.671875 -13.6875 C 1.316406 -13.90625 1.960938 -14.015625 2.609375 -14.015625 C 3.066406 -14.015625 3.515625 -13.953125 3.953125 -13.828125 C 4.378906 -13.710938 4.78125 -13.53125 5.15625 -13.28125 C 5.519531 -13.039062 5.84375 -12.734375 6.125 -12.359375 C 6.40625 -11.972656 6.625 -11.507812 6.78125 -10.96875 C 6.84375 -10.789062 6.890625 -10.613281 6.921875 -10.4375 C 6.941406 -10.238281 6.953125 -10.050781 6.953125 -9.875 C 6.953125 -9.21875 6.804688 -8.597656 6.515625 -8.015625 C 6.210938 -7.429688 5.804688 -6.914062 5.296875 -6.46875 C 5.867188 -6.132812 6.289062 -5.734375 6.5625 -5.265625 C 6.820312 -4.785156 6.953125 -4.273438 6.953125 -3.734375 C 6.953125 -3.273438 6.851562 -2.828125 6.65625 -2.390625 C 6.46875 -1.941406 6.195312 -1.539062 5.84375 -1.1875 C 5.488281 -0.832031 5.0625 -0.550781 4.5625 -0.34375 C 4.050781 -0.113281 3.488281 0 2.875 0 Z M 2.734375 -1.609375 C 3.066406 -1.585938 3.382812 -1.632812 3.6875 -1.75 C 3.988281 -1.851562 4.253906 -2.003906 4.484375 -2.203125 C 4.691406 -2.390625 4.859375 -2.613281 4.984375 -2.875 C 5.117188 -3.113281 5.1875 -3.375 5.1875 -3.65625 C 5.1875 -4.15625 5.007812 -4.566406 4.65625 -4.890625 C 4.300781 -5.203125 3.863281 -5.359375 3.34375 -5.359375 C 3.082031 -5.359375 2.832031 -5.320312 2.59375 -5.25 L 2.59375 -1.765625 C 2.59375 -1.679688 2.640625 -1.628906 2.734375 -1.609375 Z M 2.734375 -1.609375 "/></g></g></g><g fill="#ffffff" fill-opacity="1"><g transform="translate(53.047688, 22.621623)"><g><path d="M 3.890625 -2.21875 C 3.398438 -2.21875 2.953125 -2.320312 2.546875 -2.53125 C 2.128906 -2.75 1.769531 -3.046875 1.46875 -3.421875 C 1.164062 -3.796875 0.925781 -4.234375 0.75 -4.734375 C 0.570312 -5.222656 0.484375 -5.753906 0.484375 -6.328125 C 0.484375 -6.890625 0.570312 -7.421875 0.75 -7.921875 C 0.925781 -8.421875 1.164062 -8.859375 1.46875 -9.234375 C 1.769531 -9.597656 2.128906 -9.890625 2.546875 -10.109375 C 2.960938 -10.328125 3.410156 -10.4375 3.890625 -10.4375 C 4.367188 -10.4375 4.816406 -10.328125 5.234375 -10.109375 C 5.640625 -9.878906 6 -9.585938 6.3125 -9.234375 C 6.601562 -8.859375 6.84375 -8.414062 7.03125 -7.90625 C 7.195312 -7.40625 7.28125 -6.878906 7.28125 -6.328125 C 7.28125 -5.753906 7.195312 -5.222656 7.03125 -4.734375 C 6.84375 -4.234375 6.601562 -3.796875 6.3125 -3.421875 C 6 -3.046875 5.632812 -2.75 5.21875 -2.53125 C 4.800781 -2.320312 4.359375 -2.21875 3.890625 -2.21875 Z M 3.890625 -3.8125 C 4.128906 -3.8125 4.363281 -3.882812 4.59375 -4.03125 C 4.800781 -4.15625 4.988281 -4.332031 5.15625 -4.5625 C 5.3125 -4.78125 5.4375 -5.046875 5.53125 -5.359375 C 5.632812 -5.660156 5.6875 -5.984375 5.6875 -6.328125 C 5.6875 -6.660156 5.632812 -6.984375 5.53125 -7.296875 C 5.4375 -7.597656 5.3125 -7.863281 5.15625 -8.09375 C 4.976562 -8.3125 4.785156 -8.492188 4.578125 -8.640625 C 4.347656 -8.765625 4.117188 -8.828125 3.890625 -8.828125 C 3.640625 -8.828125 3.40625 -8.765625 3.1875 -8.640625 C 2.976562 -8.492188 2.789062 -8.3125 2.625 -8.09375 C 2.457031 -7.863281 2.328125 -7.597656 2.234375 -7.296875 C 2.140625 -6.984375 2.09375 -6.660156 2.09375 -6.328125 C 2.09375 -5.984375 2.140625 -5.660156 2.234375 -5.359375 C 2.328125 -5.046875 2.457031 -4.78125 2.625 -4.5625 C 2.789062 -4.332031 2.976562 -4.15625 3.1875 -4.03125 C 3.40625 -3.882812 3.640625 -3.8125 3.890625 -3.8125 Z M 0.75 0 C 0.675781 0 0.613281 -0.0234375 0.5625 -0.078125 C 0.507812 -0.128906 0.484375 -0.191406 0.484375 -0.265625 L 0.484375 -0.984375 C 0.484375 -1.054688 0.507812 -1.117188 0.5625 -1.171875 C 0.613281 -1.222656 0.675781 -1.25 0.75 -1.25 L 7.015625 -1.25 C 7.085938 -1.25 7.148438 -1.222656 7.203125 -1.171875 C 7.253906 -1.117188 7.28125 -1.054688 7.28125 -0.984375 L 7.28125 -0.265625 C 7.28125 -0.191406 7.253906 -0.128906 7.203125 -0.078125 C 7.148438 -0.0234375 7.085938 0 7.015625 0 Z M 0.75 0 "/></g></g></g><g fill="#ffffff" fill-opacity="1"><g transform="translate(60.81788, 22.621623)"><g><path d="M 3.390625 0 C 3.296875 0 3.222656 -0.0390625 3.171875 -0.125 C 3.109375 -0.195312 3.09375 -0.285156 3.125 -0.390625 L 3.3125 -0.90625 C 3.320312 -0.925781 3.328125 -0.957031 3.328125 -1 L 3.3125 -4.953125 C 3.3125 -5.242188 3.238281 -5.515625 3.09375 -5.765625 C 2.820312 -6.242188 2.554688 -6.703125 2.296875 -7.140625 C 2.035156 -7.578125 1.8125 -7.972656 1.625 -8.328125 C 1.414062 -8.671875 1.253906 -8.945312 1.140625 -9.15625 C 1.023438 -9.363281 0.960938 -9.476562 0.953125 -9.5 C 0.941406 -9.507812 0.9375 -9.519531 0.9375 -9.53125 C 0.925781 -9.539062 0.90625 -9.554688 0.875 -9.578125 L 0.4375 -10.0625 C 0.363281 -10.132812 0.328125 -10.207031 0.328125 -10.28125 C 0.328125 -10.382812 0.378906 -10.4375 0.484375 -10.4375 L 2 -10.4375 C 2.101562 -10.4375 2.207031 -10.394531 2.3125 -10.3125 C 2.40625 -10.226562 2.460938 -10.144531 2.484375 -10.0625 L 2.578125 -9.578125 C 2.578125 -9.546875 2.585938 -9.519531 2.609375 -9.5 C 2.628906 -9.476562 2.757812 -9.257812 3 -8.84375 C 3.238281 -8.425781 3.539062 -7.90625 3.90625 -7.28125 C 3.957031 -7.195312 4.03125 -7.15625 4.125 -7.15625 C 4.226562 -7.15625 4.304688 -7.195312 4.359375 -7.28125 C 4.535156 -7.59375 4.703125 -7.882812 4.859375 -8.15625 C 5.015625 -8.40625 5.148438 -8.632812 5.265625 -8.84375 C 5.367188 -9.03125 5.457031 -9.1875 5.53125 -9.3125 C 5.59375 -9.425781 5.625 -9.488281 5.625 -9.5 C 5.65625 -9.519531 5.671875 -9.546875 5.671875 -9.578125 L 5.78125 -10.0625 C 5.800781 -10.144531 5.859375 -10.226562 5.953125 -10.3125 C 6.046875 -10.394531 6.144531 -10.4375 6.25 -10.4375 L 7.78125 -10.4375 C 7.875 -10.4375 7.921875 -10.382812 7.921875 -10.28125 C 7.921875 -10.207031 7.890625 -10.132812 7.828125 -10.0625 L 7.359375 -9.578125 C 7.347656 -9.554688 7.328125 -9.53125 7.296875 -9.5 L 5.140625 -5.765625 C 4.984375 -5.492188 4.90625 -5.222656 4.90625 -4.953125 L 4.921875 -1 C 4.921875 -0.976562 4.925781 -0.960938 4.9375 -0.953125 C 4.9375 -0.941406 4.9375 -0.925781 4.9375 -0.90625 L 5.125 -0.390625 C 5.132812 -0.367188 5.140625 -0.332031 5.140625 -0.28125 C 5.140625 -0.195312 5.117188 -0.128906 5.078125 -0.078125 C 5.015625 -0.0234375 4.941406 0 4.859375 0 Z M 3.390625 0 "/></g></g></g><g fill="#ffffff" fill-opacity="1"><g transform="translate(69.069696, 22.621623)"><g/></g></g><g fill="#ffffff" fill-opacity="1"><g transform="translate(73.885928, 22.621623)"><g><path d="M 1.0625 0.03125 C 0.96875 0.03125 0.890625 -0.0078125 0.828125 -0.09375 C 0.773438 -0.164062 0.765625 -0.25 0.796875 -0.34375 L 0.984375 -0.8125 C 0.984375 -0.820312 0.988281 -0.832031 1 -0.84375 C 1 -0.851562 1 -0.875 1 -0.90625 L 1 -13.03125 C 1 -13.050781 1 -13.066406 1 -13.078125 C 0.988281 -13.085938 0.984375 -13.101562 0.984375 -13.125 L 0.796875 -13.609375 C 0.785156 -13.628906 0.78125 -13.660156 0.78125 -13.703125 C 0.78125 -13.773438 0.804688 -13.835938 0.859375 -13.890625 C 0.910156 -13.953125 0.976562 -13.984375 1.0625 -13.984375 L 2.53125 -13.984375 C 2.613281 -13.984375 2.691406 -13.941406 2.765625 -13.859375 C 2.816406 -13.773438 2.828125 -13.691406 2.796875 -13.609375 L 2.609375 -13.125 C 2.597656 -13.101562 2.59375 -13.070312 2.59375 -13.03125 L 2.59375 -9.1875 C 2.59375 -9.101562 2.625 -9.039062 2.6875 -9 C 2.738281 -8.945312 2.796875 -8.921875 2.859375 -8.921875 C 2.941406 -8.921875 3.015625 -8.96875 3.078125 -9.0625 C 3.503906 -9.800781 3.890625 -10.472656 4.234375 -11.078125 C 4.578125 -11.671875 4.925781 -12.1875 5.28125 -12.625 C 5.625 -13.050781 6 -13.382812 6.40625 -13.625 C 6.8125 -13.863281 7.289062 -13.984375 7.84375 -13.984375 C 8.226562 -13.984375 8.578125 -13.90625 8.890625 -13.75 C 9.203125 -13.601562 9.46875 -13.40625 9.6875 -13.15625 C 9.90625 -12.914062 10.070312 -12.644531 10.1875 -12.34375 C 10.289062 -12.03125 10.34375 -11.710938 10.34375 -11.390625 C 10.34375 -11.097656 10.296875 -10.820312 10.203125 -10.5625 C 10.109375 -10.28125 9.957031 -10.035156 9.75 -9.828125 C 9.539062 -9.597656 9.273438 -9.414062 8.953125 -9.28125 C 8.628906 -9.125 8.25 -9.03125 7.8125 -9 C 7.789062 -8.988281 7.769531 -8.984375 7.75 -8.984375 C 7.71875 -8.984375 7.691406 -8.976562 7.671875 -8.96875 L 7.21875 -8.765625 C 7.195312 -8.753906 7.164062 -8.75 7.125 -8.75 C 6.957031 -8.75 6.859375 -8.828125 6.828125 -8.984375 L 6.734375 -10.4375 L 6.734375 -10.453125 C 6.734375 -10.535156 6.773438 -10.601562 6.859375 -10.65625 C 6.921875 -10.707031 6.992188 -10.722656 7.078125 -10.703125 L 7.5625 -10.578125 C 7.59375 -10.566406 7.65625 -10.566406 7.75 -10.578125 C 7.84375 -10.578125 7.953125 -10.59375 8.078125 -10.625 C 8.191406 -10.65625 8.300781 -10.695312 8.40625 -10.75 C 8.507812 -10.789062 8.59375 -10.851562 8.65625 -10.9375 C 8.738281 -11.09375 8.78125 -11.25 8.78125 -11.40625 C 8.78125 -11.664062 8.6875 -11.898438 8.5 -12.109375 C 8.3125 -12.328125 8.054688 -12.425781 7.734375 -12.40625 C 7.472656 -12.382812 7.238281 -12.296875 7.03125 -12.140625 C 6.800781 -11.992188 6.550781 -11.726562 6.28125 -11.34375 C 6 -10.945312 5.660156 -10.410156 5.265625 -9.734375 C 4.867188 -9.054688 4.359375 -8.175781 3.734375 -7.09375 C 3.710938 -7.0625 3.703125 -7.035156 3.703125 -7.015625 C 3.691406 -6.992188 3.710938 -6.925781 3.765625 -6.8125 C 3.804688 -6.707031 3.894531 -6.546875 4.03125 -6.328125 C 4.15625 -6.085938 4.351562 -5.742188 4.625 -5.296875 C 4.875 -4.847656 5.207031 -4.269531 5.625 -3.5625 C 6.039062 -2.84375 6.550781 -1.957031 7.15625 -0.90625 C 7.175781 -0.863281 7.203125 -0.832031 7.234375 -0.8125 L 7.6875 -0.34375 C 7.757812 -0.257812 7.796875 -0.179688 7.796875 -0.109375 C 7.796875 -0.015625 7.742188 0.03125 7.640625 0.03125 L 6 0.03125 C 5.90625 0.03125 5.8125 -0.0078125 5.71875 -0.09375 C 5.613281 -0.164062 5.550781 -0.25 5.53125 -0.34375 L 5.421875 -0.8125 C 5.421875 -0.820312 5.410156 -0.851562 5.390625 -0.90625 L 3.078125 -4.875 C 3.023438 -4.957031 2.953125 -5 2.859375 -5 C 2.765625 -5 2.6875 -4.957031 2.625 -4.875 C 2.613281 -4.851562 2.609375 -4.84375 2.609375 -4.84375 C 2.597656 -4.832031 2.59375 -4.804688 2.59375 -4.765625 L 2.59375 -0.90625 C 2.59375 -0.851562 2.597656 -0.820312 2.609375 -0.8125 L 2.796875 -0.34375 C 2.804688 -0.320312 2.8125 -0.289062 2.8125 -0.25 C 2.8125 -0.164062 2.785156 -0.0976562 2.734375 -0.046875 C 2.671875 0.00390625 2.601562 0.03125 2.53125 0.03125 Z M 1.0625 0.03125 "/></g></g></g><g fill="#ffffff" fill-opacity="1"><g transform="translate(82.169845, 22.621623)"><g><path d="M 1.078125 0 C 0.984375 0 0.90625 -0.0390625 0.84375 -0.125 C 0.789062 -0.195312 0.78125 -0.28125 0.8125 -0.375 L 1 -0.84375 C 1 -0.863281 1.003906 -0.882812 1.015625 -0.90625 C 1.015625 -0.914062 1.015625 -0.925781 1.015625 -0.9375 L 1.015625 -9.5 C 1.015625 -9.507812 1.015625 -9.519531 1.015625 -9.53125 C 1.003906 -9.539062 1 -9.554688 1 -9.578125 L 0.8125 -10.0625 C 0.800781 -10.082031 0.796875 -10.113281 0.796875 -10.15625 C 0.796875 -10.226562 0.820312 -10.289062 0.875 -10.34375 C 0.925781 -10.40625 0.992188 -10.4375 1.078125 -10.4375 L 2.546875 -10.4375 C 2.640625 -10.4375 2.71875 -10.394531 2.78125 -10.3125 C 2.832031 -10.226562 2.84375 -10.144531 2.8125 -10.0625 L 2.75 -9.921875 C 2.96875 -9.421875 3.144531 -9.046875 3.28125 -8.796875 C 3.394531 -8.523438 3.484375 -8.328125 3.546875 -8.203125 C 3.609375 -8.066406 3.648438 -7.976562 3.671875 -7.9375 C 3.691406 -7.882812 3.71875 -7.832031 3.75 -7.78125 L 3.875 -7.546875 C 3.925781 -7.429688 4.007812 -7.25 4.125 -7 C 4.238281 -6.738281 4.40625 -6.382812 4.625 -5.9375 C 4.832031 -5.476562 5.109375 -4.878906 5.453125 -4.140625 C 5.484375 -4.097656 5.519531 -4.078125 5.5625 -4.078125 C 5.644531 -4.078125 5.6875 -4.113281 5.6875 -4.1875 L 5.6875 -13.078125 C 5.6875 -13.109375 5.679688 -13.132812 5.671875 -13.15625 L 5.5 -13.640625 C 5.488281 -13.660156 5.484375 -13.691406 5.484375 -13.734375 C 5.484375 -13.804688 5.507812 -13.867188 5.5625 -13.921875 C 5.601562 -13.984375 5.671875 -14.015625 5.765625 -14.015625 L 7.21875 -14.015625 C 7.3125 -14.015625 7.390625 -13.972656 7.453125 -13.890625 C 7.503906 -13.804688 7.515625 -13.722656 7.484375 -13.640625 L 7.296875 -13.15625 C 7.296875 -13.132812 7.296875 -13.117188 7.296875 -13.109375 C 7.285156 -13.097656 7.28125 -13.085938 7.28125 -13.078125 L 7.28125 -0.9375 C 7.28125 -0.925781 7.285156 -0.914062 7.296875 -0.90625 C 7.296875 -0.882812 7.296875 -0.863281 7.296875 -0.84375 L 7.484375 -0.375 C 7.492188 -0.351562 7.5 -0.316406 7.5 -0.265625 C 7.5 -0.191406 7.472656 -0.128906 7.421875 -0.078125 C 7.367188 -0.0234375 7.300781 0 7.21875 0 L 5.765625 0 C 5.660156 0 5.582031 -0.0390625 5.53125 -0.125 C 5.476562 -0.195312 5.46875 -0.28125 5.5 -0.375 L 5.546875 -0.515625 L 2.84375 -6.296875 C 2.8125 -6.335938 2.773438 -6.359375 2.734375 -6.359375 C 2.648438 -6.359375 2.609375 -6.320312 2.609375 -6.25 L 2.609375 -0.9375 C 2.609375 -0.894531 2.613281 -0.863281 2.625 -0.84375 L 2.8125 -0.375 C 2.820312 -0.351562 2.828125 -0.320312 2.828125 -0.28125 C 2.828125 -0.195312 2.800781 -0.128906 2.75 -0.078125 C 2.6875 -0.0234375 2.617188 0 2.546875 0 Z M 1.078125 0 "/></g></g></g><g fill="#ffffff" fill-opacity="1"><g transform="translate(90.469819, 22.621623)"><g><path d="M 3.890625 -2.21875 C 3.398438 -2.21875 2.953125 -2.320312 2.546875 -2.53125 C 2.128906 -2.75 1.769531 -3.046875 1.46875 -3.421875 C 1.164062 -3.796875 0.925781 -4.234375 0.75 -4.734375 C 0.570312 -5.222656 0.484375 -5.753906 0.484375 -6.328125 C 0.484375 -6.890625 0.570312 -7.421875 0.75 -7.921875 C 0.925781 -8.421875 1.164062 -8.859375 1.46875 -9.234375 C 1.769531 -9.597656 2.128906 -9.890625 2.546875 -10.109375 C 2.960938 -10.328125 3.410156 -10.4375 3.890625 -10.4375 C 4.367188 -10.4375 4.816406 -10.328125 5.234375 -10.109375 C 5.640625 -9.878906 6 -9.585938 6.3125 -9.234375 C 6.601562 -8.859375 6.84375 -8.414062 7.03125 -7.90625 C 7.195312 -7.40625 7.28125 -6.878906 7.28125 -6.328125 C 7.28125 -5.753906 7.195312 -5.222656 7.03125 -4.734375 C 6.84375 -4.234375 6.601562 -3.796875 6.3125 -3.421875 C 6 -3.046875 5.632812 -2.75 5.21875 -2.53125 C 4.800781 -2.320312 4.359375 -2.21875 3.890625 -2.21875 Z M 3.890625 -3.8125 C 4.128906 -3.8125 4.363281 -3.882812 4.59375 -4.03125 C 4.800781 -4.15625 4.988281 -4.332031 5.15625 -4.5625 C 5.3125 -4.78125 5.4375 -5.046875 5.53125 -5.359375 C 5.632812 -5.660156 5.6875 -5.984375 5.6875 -6.328125 C 5.6875 -6.660156 5.632812 -6.984375 5.53125 -7.296875 C 5.4375 -7.597656 5.3125 -7.863281 5.15625 -8.09375 C 4.976562 -8.3125 4.785156 -8.492188 4.578125 -8.640625 C 4.347656 -8.765625 4.117188 -8.828125 3.890625 -8.828125 C 3.640625 -8.828125 3.40625 -8.765625 3.1875 -8.640625 C 2.976562 -8.492188 2.789062 -8.3125 2.625 -8.09375 C 2.457031 -7.863281 2.328125 -7.597656 2.234375 -7.296875 C 2.140625 -6.984375 2.09375 -6.660156 2.09375 -6.328125 C 2.09375 -5.984375 2.140625 -5.660156 2.234375 -5.359375 C 2.328125 -5.046875 2.457031 -4.78125 2.625 -4.5625 C 2.789062 -4.332031 2.976562 -4.15625 3.1875 -4.03125 C 3.40625 -3.882812 3.640625 -3.8125 3.890625 -3.8125 Z M 0.75 0 C 0.675781 0 0.613281 -0.0234375 0.5625 -0.078125 C 0.507812 -0.128906 0.484375 -0.191406 0.484375 -0.265625 L 0.484375 -0.984375 C 0.484375 -1.054688 0.507812 -1.117188 0.5625 -1.171875 C 0.613281 -1.222656 0.675781 -1.25 0.75 -1.25 L 7.015625 -1.25 C 7.085938 -1.25 7.148438 -1.222656 7.203125 -1.171875 C 7.253906 -1.117188 7.28125 -1.054688 7.28125 -0.984375 L 7.28125 -0.265625 C 7.28125 -0.191406 7.253906 -0.128906 7.203125 -0.078125 C 7.148438 -0.0234375 7.085938 0 7.015625 0 Z M 0.75 0 "/></g></g></g><g fill="#ffffff" fill-opacity="1"><g transform="translate(98.240011, 22.621623)"><g><path d="M 12.484375 -10.4375 C 12.617188 -10.4375 12.6875 -10.363281 12.6875 -10.21875 C 12.6875 -10.15625 12.671875 -10.101562 12.640625 -10.0625 L 12.34375 -9.578125 C 12.320312 -9.535156 12.3125 -9.507812 12.3125 -9.5 L 10.0625 -1.125 C 10.039062 -1.039062 10.03125 -0.972656 10.03125 -0.921875 C 10.03125 -0.804688 10.054688 -0.679688 10.109375 -0.546875 L 10.1875 -0.375 C 10.195312 -0.351562 10.203125 -0.316406 10.203125 -0.265625 C 10.203125 -0.191406 10.171875 -0.128906 10.109375 -0.078125 C 10.046875 -0.0234375 9.96875 0 9.875 0 L 7.875 0 C 7.757812 0 7.671875 -0.0390625 7.609375 -0.125 C 7.535156 -0.195312 7.519531 -0.28125 7.5625 -0.375 L 7.640625 -0.546875 C 7.691406 -0.679688 7.71875 -0.804688 7.71875 -0.921875 C 7.71875 -0.972656 7.707031 -1.039062 7.6875 -1.125 C 7.539062 -1.664062 7.378906 -2.28125 7.203125 -2.96875 C 7.023438 -3.644531 6.832031 -4.351562 6.625 -5.09375 C 6.601562 -5.15625 6.566406 -5.1875 6.515625 -5.1875 C 6.441406 -5.1875 6.398438 -5.15625 6.390625 -5.09375 L 5.328125 -1.140625 C 5.304688 -1.054688 5.296875 -0.988281 5.296875 -0.9375 C 5.296875 -0.820312 5.320312 -0.695312 5.375 -0.5625 L 5.453125 -0.390625 C 5.460938 -0.367188 5.46875 -0.332031 5.46875 -0.28125 C 5.46875 -0.207031 5.4375 -0.144531 5.375 -0.09375 C 5.3125 -0.0390625 5.234375 -0.015625 5.140625 -0.015625 L 3.140625 -0.015625 C 3.023438 -0.015625 2.9375 -0.0546875 2.875 -0.140625 C 2.800781 -0.210938 2.785156 -0.296875 2.828125 -0.390625 L 2.90625 -0.5625 C 2.957031 -0.695312 2.984375 -0.820312 2.984375 -0.9375 C 2.984375 -0.988281 2.972656 -1.054688 2.953125 -1.140625 C 2.804688 -1.691406 2.640625 -2.316406 2.453125 -3.015625 C 2.273438 -3.703125 2.082031 -4.421875 1.875 -5.171875 C 1.675781 -5.910156 1.476562 -6.648438 1.28125 -7.390625 C 1.082031 -8.140625 0.890625 -8.847656 0.703125 -9.515625 C 0.703125 -9.546875 0.691406 -9.570312 0.671875 -9.59375 L 0.375 -10.078125 C 0.34375 -10.117188 0.328125 -10.171875 0.328125 -10.234375 C 0.328125 -10.378906 0.394531 -10.453125 0.53125 -10.453125 L 2.171875 -10.453125 C 2.253906 -10.453125 2.335938 -10.410156 2.421875 -10.328125 C 2.492188 -10.242188 2.523438 -10.160156 2.515625 -10.078125 L 2.46875 -9.59375 C 2.46875 -9.5625 2.472656 -9.535156 2.484375 -9.515625 L 4.09375 -3.484375 C 4.101562 -3.421875 4.144531 -3.390625 4.21875 -3.390625 C 4.28125 -3.390625 4.320312 -3.421875 4.34375 -3.484375 L 4.53125 -4.140625 L 4.53125 -4.15625 C 4.539062 -4.164062 4.546875 -4.1875 4.546875 -4.21875 L 4.59375 -4.359375 C 4.59375 -4.347656 4.585938 -4.335938 4.578125 -4.328125 L 4.65625 -4.65625 L 4.609375 -4.4375 C 4.804688 -5.195312 4.976562 -5.828125 5.125 -6.328125 C 5.257812 -6.816406 5.367188 -7.21875 5.453125 -7.53125 C 5.523438 -7.820312 5.582031 -8.054688 5.625 -8.234375 C 5.664062 -8.390625 5.6875 -8.515625 5.6875 -8.609375 C 5.6875 -8.742188 5.660156 -8.863281 5.609375 -8.96875 C 5.554688 -9.070312 5.5 -9.25 5.4375 -9.5 C 5.4375 -9.53125 5.425781 -9.554688 5.40625 -9.578125 L 5.109375 -10.0625 C 5.078125 -10.101562 5.0625 -10.15625 5.0625 -10.21875 C 5.0625 -10.363281 5.128906 -10.4375 5.265625 -10.4375 L 6.734375 -10.4375 C 6.835938 -10.4375 6.925781 -10.394531 7 -10.3125 C 7.070312 -10.226562 7.101562 -10.144531 7.09375 -10.0625 L 7.046875 -9.578125 C 7.046875 -9.535156 7.050781 -9.507812 7.0625 -9.5 L 8.671875 -3.453125 C 8.691406 -3.398438 8.734375 -3.375 8.796875 -3.375 C 8.859375 -3.375 8.898438 -3.398438 8.921875 -3.453125 C 8.921875 -3.460938 8.941406 -3.550781 8.984375 -3.71875 C 9.023438 -3.882812 9.070312 -4.050781 9.125 -4.21875 C 9.164062 -4.394531 9.203125 -4.53125 9.234375 -4.625 C 9.253906 -4.707031 9.242188 -4.679688 9.203125 -4.546875 L 10.546875 -9.515625 L 10.546875 -9.578125 L 10.5 -10.0625 C 10.488281 -10.144531 10.523438 -10.226562 10.609375 -10.3125 C 10.679688 -10.394531 10.765625 -10.4375 10.859375 -10.4375 Z M 4.65625 -4.671875 L 4.65625 -4.65625 Z M 4.5625 -4.265625 C 4.5625 -4.285156 4.566406 -4.304688 4.578125 -4.328125 Z M 4.5625 -4.265625 C 4.550781 -4.242188 4.546875 -4.226562 4.546875 -4.21875 C 4.535156 -4.195312 4.53125 -4.175781 4.53125 -4.15625 L 4.546875 -4.21875 C 4.546875 -4.226562 4.550781 -4.238281 4.5625 -4.25 C 4.5625 -4.25 4.5625 -4.253906 4.5625 -4.265625 Z M 4.53125 -4.140625 C 4.507812 -4.097656 4.5 -4.066406 4.5 -4.046875 C 4.507812 -4.066406 4.515625 -4.082031 4.515625 -4.09375 C 4.515625 -4.101562 4.519531 -4.117188 4.53125 -4.140625 Z M 4.53125 -4.140625 "/></g></g></g><g fill="#ffffff" fill-opacity="1"><g transform="translate(111.25989, 22.621623)"><g><path d="M 1.015625 -0.015625 C 0.921875 -0.0351562 0.859375 -0.078125 0.828125 -0.140625 C 0.796875 -0.203125 0.789062 -0.28125 0.8125 -0.375 L 1 -0.84375 C 1 -0.863281 1.003906 -0.882812 1.015625 -0.90625 C 1.015625 -0.914062 1.015625 -0.925781 1.015625 -0.9375 L 1.015625 -9.5 C 1.015625 -9.507812 1.015625 -9.519531 1.015625 -9.53125 C 1.003906 -9.539062 1 -9.554688 1 -9.578125 L 0.8125 -10.0625 C 0.800781 -10.082031 0.796875 -10.113281 0.796875 -10.15625 C 0.796875 -10.226562 0.820312 -10.289062 0.875 -10.34375 C 0.925781 -10.40625 0.992188 -10.4375 1.078125 -10.4375 L 2.546875 -10.4375 C 2.640625 -10.4375 2.71875 -10.394531 2.78125 -10.3125 C 2.832031 -10.226562 2.84375 -10.144531 2.8125 -10.0625 L 2.625 -9.578125 C 2.613281 -9.554688 2.609375 -9.53125 2.609375 -9.5 L 2.609375 -1.875 C 2.609375 -1.800781 2.640625 -1.738281 2.703125 -1.6875 C 2.742188 -1.632812 2.804688 -1.609375 2.890625 -1.609375 L 5.40625 -1.609375 C 5.445312 -1.609375 5.476562 -1.613281 5.5 -1.625 L 6 -1.796875 C 6.019531 -1.804688 6.050781 -1.8125 6.09375 -1.8125 C 6.269531 -1.8125 6.359375 -1.726562 6.359375 -1.5625 L 6.359375 -0.265625 C 6.359375 -0.191406 6.332031 -0.128906 6.28125 -0.078125 C 6.21875 -0.0234375 6.148438 0 6.078125 0 L 1.015625 0 Z M 1.015625 -0.015625 "/></g></g></g><g fill="#ffffff" fill-opacity="1"><g transform="translate(118.098935, 22.621623)"><g><path d="M 3.78125 -2.21875 L 1.890625 -2.21875 C 1.628906 -2.21875 1.414062 -2.222656 1.25 -2.234375 L 1.015625 -2.234375 C 0.921875 -2.253906 0.859375 -2.296875 0.828125 -2.359375 C 0.796875 -2.421875 0.789062 -2.492188 0.8125 -2.578125 L 1 -3.0625 C 1 -3.082031 1.003906 -3.097656 1.015625 -3.109375 C 1.015625 -3.117188 1.015625 -3.128906 1.015625 -3.140625 L 1.015625 -9.5 C 1.015625 -9.507812 1.015625 -9.519531 1.015625 -9.53125 C 1.003906 -9.539062 1 -9.554688 1 -9.578125 L 0.8125 -10.0625 C 0.800781 -10.082031 0.796875 -10.113281 0.796875 -10.15625 C 0.796875 -10.289062 0.867188 -10.378906 1.015625 -10.421875 L 1.015625 -10.4375 L 6.5625 -10.4375 C 6.632812 -10.4375 6.695312 -10.40625 6.75 -10.34375 C 6.800781 -10.289062 6.828125 -10.226562 6.828125 -10.15625 L 6.828125 -8.875 C 6.828125 -8.789062 6.789062 -8.722656 6.71875 -8.671875 C 6.644531 -8.609375 6.566406 -8.597656 6.484375 -8.640625 L 5.984375 -8.8125 C 5.960938 -8.820312 5.929688 -8.828125 5.890625 -8.828125 L 2.890625 -8.828125 C 2.804688 -8.828125 2.742188 -8.800781 2.703125 -8.75 C 2.640625 -8.695312 2.609375 -8.628906 2.609375 -8.546875 L 2.609375 -8.015625 C 2.609375 -7.953125 2.640625 -7.898438 2.703125 -7.859375 C 2.742188 -7.804688 2.796875 -7.78125 2.859375 -7.78125 L 4.828125 -7.78125 C 4.867188 -7.78125 4.898438 -7.785156 4.921875 -7.796875 L 5.40625 -7.96875 C 5.425781 -7.976562 5.457031 -7.984375 5.5 -7.984375 C 5.675781 -7.984375 5.765625 -7.894531 5.765625 -7.71875 L 5.765625 -6.25 C 5.765625 -6.144531 5.726562 -6.066406 5.65625 -6.015625 C 5.570312 -5.960938 5.488281 -5.953125 5.40625 -5.984375 L 4.921875 -6.15625 C 4.898438 -6.164062 4.867188 -6.171875 4.828125 -6.171875 L 2.859375 -6.171875 C 2.796875 -6.171875 2.742188 -6.148438 2.703125 -6.109375 C 2.640625 -6.054688 2.609375 -6 2.609375 -5.9375 L 2.609375 -4.09375 C 2.609375 -4.019531 2.640625 -3.957031 2.703125 -3.90625 C 2.742188 -3.84375 2.804688 -3.8125 2.890625 -3.8125 L 5.890625 -3.8125 C 5.929688 -3.8125 5.960938 -3.816406 5.984375 -3.828125 L 6.484375 -4.015625 C 6.503906 -4.023438 6.535156 -4.03125 6.578125 -4.03125 C 6.742188 -4.03125 6.828125 -3.941406 6.828125 -3.765625 L 6.828125 -2.484375 C 6.828125 -2.410156 6.800781 -2.347656 6.75 -2.296875 C 6.695312 -2.242188 6.632812 -2.21875 6.5625 -2.21875 Z M 1.078125 0 C 1.003906 0 0.9375 -0.0234375 0.875 -0.078125 C 0.820312 -0.128906 0.796875 -0.191406 0.796875 -0.265625 L 0.796875 -0.984375 C 0.796875 -1.054688 0.820312 -1.117188 0.875 -1.171875 C 0.9375 -1.222656 1.003906 -1.25 1.078125 -1.25 L 6.5625 -1.25 C 6.632812 -1.25 6.695312 -1.222656 6.75 -1.171875 C 6.800781 -1.117188 6.828125 -1.054688 6.828125 -0.984375 L 6.828125 -0.265625 C 6.828125 -0.191406 6.800781 -0.128906 6.75 -0.078125 C 6.695312 -0.0234375 6.632812 0 6.5625 0 Z M 1.078125 0 "/></g></g></g><g fill="#ffffff" fill-opacity="1"><g transform="translate(125.740687, 22.621623)"><g><path d="M 1.078125 0 C 0.984375 0 0.90625 -0.0390625 0.84375 -0.125 C 0.789062 -0.195312 0.78125 -0.28125 0.8125 -0.375 L 1 -0.84375 C 1 -0.863281 1.003906 -0.882812 1.015625 -0.90625 C 1.015625 -0.914062 1.015625 -0.925781 1.015625 -0.9375 L 1.015625 -9.5 C 1.015625 -9.507812 1.015625 -9.519531 1.015625 -9.53125 C 1.003906 -9.539062 1 -9.554688 1 -9.578125 L 0.8125 -10.0625 C 0.800781 -10.082031 0.796875 -10.113281 0.796875 -10.15625 C 0.796875 -10.226562 0.820312 -10.289062 0.875 -10.34375 C 0.925781 -10.40625 0.992188 -10.4375 1.078125 -10.4375 L 2.625 -10.4375 C 3.21875 -10.4375 3.773438 -10.300781 4.296875 -10.03125 C 4.816406 -9.75 5.269531 -9.375 5.65625 -8.90625 C 6.03125 -8.4375 6.332031 -7.882812 6.5625 -7.25 C 6.789062 -6.613281 6.90625 -5.9375 6.90625 -5.21875 C 6.90625 -4.488281 6.789062 -3.804688 6.5625 -3.171875 C 6.332031 -2.546875 6.03125 -2 5.65625 -1.53125 C 5.269531 -1.050781 4.816406 -0.679688 4.296875 -0.421875 C 3.773438 -0.140625 3.21875 0 2.625 0 Z M 2.84375 -1.625 C 3.207031 -1.65625 3.535156 -1.773438 3.828125 -1.984375 C 4.128906 -2.203125 4.390625 -2.476562 4.609375 -2.8125 C 4.816406 -3.144531 4.988281 -3.519531 5.125 -3.9375 C 5.238281 -4.351562 5.296875 -4.78125 5.296875 -5.21875 C 5.296875 -5.6875 5.234375 -6.128906 5.109375 -6.546875 C 4.972656 -6.960938 4.800781 -7.335938 4.59375 -7.671875 C 4.363281 -7.992188 4.097656 -8.253906 3.796875 -8.453125 C 3.503906 -8.660156 3.1875 -8.78125 2.84375 -8.8125 L 2.828125 -8.8125 C 2.679688 -8.8125 2.609375 -8.738281 2.609375 -8.59375 L 2.609375 -1.828125 C 2.609375 -1.765625 2.632812 -1.710938 2.6875 -1.671875 C 2.726562 -1.628906 2.78125 -1.613281 2.84375 -1.625 Z M 2.84375 -1.625 "/></g></g></g><g fill="#ffffff" fill-opacity="1"><g transform="translate(133.125581, 22.621623)"><g><path d="M 4.75 0 C 4.144531 0 3.585938 -0.140625 3.078125 -0.421875 C 2.554688 -0.679688 2.101562 -1.054688 1.71875 -1.546875 C 1.332031 -2.015625 1.03125 -2.5625 0.8125 -3.1875 C 0.59375 -3.820312 0.484375 -4.5 0.484375 -5.21875 C 0.484375 -5.9375 0.59375 -6.609375 0.8125 -7.234375 C 1.03125 -7.867188 1.332031 -8.425781 1.71875 -8.90625 C 2.101562 -9.375 2.554688 -9.75 3.078125 -10.03125 C 3.585938 -10.300781 4.144531 -10.4375 4.75 -10.4375 C 5.132812 -10.4375 5.515625 -10.367188 5.890625 -10.234375 C 5.921875 -10.222656 5.972656 -10.226562 6.046875 -10.25 C 6.066406 -10.257812 6.097656 -10.265625 6.140625 -10.265625 C 6.222656 -10.265625 6.289062 -10.242188 6.34375 -10.203125 C 6.394531 -10.148438 6.421875 -10.082031 6.421875 -10 L 6.421875 -8.640625 C 6.421875 -8.546875 6.394531 -8.476562 6.34375 -8.4375 C 6.289062 -8.382812 6.222656 -8.359375 6.140625 -8.359375 C 6.078125 -8.359375 6.023438 -8.375 5.984375 -8.40625 C 5.953125 -8.4375 5.914062 -8.460938 5.875 -8.484375 C 5.695312 -8.597656 5.519531 -8.6875 5.34375 -8.75 C 5.164062 -8.800781 4.96875 -8.828125 4.75 -8.828125 C 4.382812 -8.828125 4.039062 -8.726562 3.71875 -8.53125 C 3.382812 -8.34375 3.101562 -8.085938 2.875 -7.765625 C 2.625 -7.429688 2.429688 -7.046875 2.296875 -6.609375 C 2.160156 -6.171875 2.09375 -5.707031 2.09375 -5.21875 C 2.09375 -4.757812 2.15625 -4.328125 2.28125 -3.921875 C 2.40625 -3.503906 2.582031 -3.132812 2.8125 -2.8125 C 3.019531 -2.476562 3.273438 -2.207031 3.578125 -2 C 3.867188 -1.789062 4.179688 -1.664062 4.515625 -1.625 L 4.546875 -1.625 C 4.617188 -1.625 4.679688 -1.648438 4.734375 -1.703125 C 4.785156 -1.753906 4.8125 -1.816406 4.8125 -1.890625 L 4.8125 -4.15625 C 4.8125 -4.195312 4.804688 -4.222656 4.796875 -4.234375 L 4.625 -4.71875 C 4.613281 -4.738281 4.609375 -4.769531 4.609375 -4.8125 C 4.609375 -5 4.695312 -5.09375 4.875 -5.09375 L 6.15625 -5.09375 C 6.238281 -5.09375 6.304688 -5.0625 6.359375 -5 C 6.410156 -4.945312 6.4375 -4.882812 6.4375 -4.8125 C 6.4375 -4.5625 6.4375 -4.25 6.4375 -3.875 C 6.425781 -3.476562 6.421875 -3.0625 6.421875 -2.625 L 6.421875 -0.265625 C 6.421875 -0.191406 6.394531 -0.128906 6.34375 -0.078125 C 6.289062 -0.0234375 6.222656 0 6.140625 0 Z M 4.75 0 "/></g></g></g><g fill="#ffffff" fill-opacity="1"><g transform="translate(140.044897, 22.621623)"><g><path d="M 3.78125 -2.21875 L 1.890625 -2.21875 C 1.628906 -2.21875 1.414062 -2.222656 1.25 -2.234375 L 1.015625 -2.234375 C 0.921875 -2.253906 0.859375 -2.296875 0.828125 -2.359375 C 0.796875 -2.421875 0.789062 -2.492188 0.8125 -2.578125 L 1 -3.0625 C 1 -3.082031 1.003906 -3.097656 1.015625 -3.109375 C 1.015625 -3.117188 1.015625 -3.128906 1.015625 -3.140625 L 1.015625 -9.5 C 1.015625 -9.507812 1.015625 -9.519531 1.015625 -9.53125 C 1.003906 -9.539062 1 -9.554688 1 -9.578125 L 0.8125 -10.0625 C 0.800781 -10.082031 0.796875 -10.113281 0.796875 -10.15625 C 0.796875 -10.289062 0.867188 -10.378906 1.015625 -10.421875 L 1.015625 -10.4375 L 6.5625 -10.4375 C 6.632812 -10.4375 6.695312 -10.40625 6.75 -10.34375 C 6.800781 -10.289062 6.828125 -10.226562 6.828125 -10.15625 L 6.828125 -8.875 C 6.828125 -8.789062 6.789062 -8.722656 6.71875 -8.671875 C 6.644531 -8.609375 6.566406 -8.597656 6.484375 -8.640625 L 5.984375 -8.8125 C 5.960938 -8.820312 5.929688 -8.828125 5.890625 -8.828125 L 2.890625 -8.828125 C 2.804688 -8.828125 2.742188 -8.800781 2.703125 -8.75 C 2.640625 -8.695312 2.609375 -8.628906 2.609375 -8.546875 L 2.609375 -8.015625 C 2.609375 -7.953125 2.640625 -7.898438 2.703125 -7.859375 C 2.742188 -7.804688 2.796875 -7.78125 2.859375 -7.78125 L 4.828125 -7.78125 C 4.867188 -7.78125 4.898438 -7.785156 4.921875 -7.796875 L 5.40625 -7.96875 C 5.425781 -7.976562 5.457031 -7.984375 5.5 -7.984375 C 5.675781 -7.984375 5.765625 -7.894531 5.765625 -7.71875 L 5.765625 -6.25 C 5.765625 -6.144531 5.726562 -6.066406 5.65625 -6.015625 C 5.570312 -5.960938 5.488281 -5.953125 5.40625 -5.984375 L 4.921875 -6.15625 C 4.898438 -6.164062 4.867188 -6.171875 4.828125 -6.171875 L 2.859375 -6.171875 C 2.796875 -6.171875 2.742188 -6.148438 2.703125 -6.109375 C 2.640625 -6.054688 2.609375 -6 2.609375 -5.9375 L 2.609375 -4.09375 C 2.609375 -4.019531 2.640625 -3.957031 2.703125 -3.90625 C 2.742188 -3.84375 2.804688 -3.8125 2.890625 -3.8125 L 5.890625 -3.8125 C 5.929688 -3.8125 5.960938 -3.816406 5.984375 -3.828125 L 6.484375 -4.015625 C 6.503906 -4.023438 6.535156 -4.03125 6.578125 -4.03125 C 6.742188 -4.03125 6.828125 -3.941406 6.828125 -3.765625 L 6.828125 -2.484375 C 6.828125 -2.410156 6.800781 -2.347656 6.75 -2.296875 C 6.695312 -2.242188 6.632812 -2.21875 6.5625 -2.21875 Z M 1.078125 0 C 1.003906 0 0.9375 -0.0234375 0.875 -0.078125 C 0.820312 -0.128906 0.796875 -0.191406 0.796875 -0.265625 L 0.796875 -0.984375 C 0.796875 -1.054688 0.820312 -1.117188 0.875 -1.171875 C 0.9375 -1.222656 1.003906 -1.25 1.078125 -1.25 L 6.5625 -1.25 C 6.632812 -1.25 6.695312 -1.222656 6.75 -1.171875 C 6.800781 -1.117188 6.828125 -1.054688 6.828125 -0.984375 L 6.828125 -0.265625 C 6.828125 -0.191406 6.800781 -0.128906 6.75 -0.078125 C 6.695312 -0.0234375 6.632812 0 6.5625 0 Z M 1.078125 0 "/></g></g></g></svg>